<mxfile host="65bd71144e">
    <diagram id="KbOg__-k8uxWL7zDkOE9" name="第 1 页">
        <mxGraphModel dx="1373" dy="665" grid="1" gridSize="10" guides="1" tooltips="1" connect="1" arrows="1" fold="1" page="1" pageScale="1" pageWidth="827" pageHeight="1169" math="0" shadow="0">
            <root>
                <mxCell id="0"/>
                <mxCell id="1" parent="0"/>
                <mxCell id="4" style="edgeStyle=none;html=1;exitX=1;exitY=0.5;exitDx=0;exitDy=0;entryX=0;entryY=0.5;entryDx=0;entryDy=0;sketch=1;" parent="1" source="2" target="3" edge="1">
                    <mxGeometry relative="1" as="geometry"/>
                </mxCell>
                <mxCell id="6" style="edgeStyle=none;sketch=1;html=1;exitX=1;exitY=0.5;exitDx=0;exitDy=0;entryX=0;entryY=0.5;entryDx=0;entryDy=0;" parent="1" source="2" target="5" edge="1">
                    <mxGeometry relative="1" as="geometry"/>
                </mxCell>
                <mxCell id="8" style="edgeStyle=none;sketch=1;html=1;exitX=1;exitY=0.5;exitDx=0;exitDy=0;entryX=0;entryY=0.5;entryDx=0;entryDy=0;" parent="1" source="2" target="7" edge="1">
                    <mxGeometry relative="1" as="geometry"/>
                </mxCell>
                <mxCell id="2" value="并查集可以解决的问题" style="rounded=0;whiteSpace=wrap;html=1;fillColor=#ffe6cc;strokeColor=#d79b00;comic=1;" parent="1" vertex="1">
                    <mxGeometry x="40" y="85" width="100" height="40" as="geometry"/>
                </mxCell>
                <mxCell id="3" value="O(1)时间内判断两元素是否位于同一集合" style="rounded=0;whiteSpace=wrap;html=1;fillColor=#ffe6cc;strokeColor=#d79b00;comic=1;sketch=1;" parent="1" vertex="1">
                    <mxGeometry x="200" y="40" width="120" height="40" as="geometry"/>
                </mxCell>
                <mxCell id="5" value="O(1)时间合并两个集合" style="rounded=0;whiteSpace=wrap;html=1;fillColor=#ffe6cc;strokeColor=#d79b00;comic=1;sketch=1;" parent="1" vertex="1">
                    <mxGeometry x="200" y="90" width="130" height="30" as="geometry"/>
                </mxCell>
                <mxCell id="7" value="O(n)时间获取某个元素对应的集合所有元素" style="rounded=0;whiteSpace=wrap;html=1;fillColor=#ffe6cc;strokeColor=#d79b00;comic=1;sketch=1;" parent="1" vertex="1">
                    <mxGeometry x="200" y="130" width="130" height="40" as="geometry"/>
                </mxCell>
                <mxCell id="11" style="edgeStyle=none;sketch=1;html=1;exitX=1;exitY=0.5;exitDx=0;exitDy=0;entryX=0;entryY=0.5;entryDx=0;entryDy=0;" parent="1" source="9" target="10" edge="1">
                    <mxGeometry relative="1" as="geometry"/>
                </mxCell>
                <mxCell id="13" style="edgeStyle=none;sketch=1;html=1;exitX=1;exitY=0.5;exitDx=0;exitDy=0;entryX=0;entryY=0.5;entryDx=0;entryDy=0;" parent="1" source="9" target="12" edge="1">
                    <mxGeometry relative="1" as="geometry"/>
                </mxCell>
                <mxCell id="9" value="核心操作" style="rounded=0;whiteSpace=wrap;html=1;fillColor=#b0e3e6;strokeColor=#0e8088;comic=1;" parent="1" vertex="1">
                    <mxGeometry x="40" y="250" width="80" height="30" as="geometry"/>
                </mxCell>
                <mxCell id="20" style="edgeStyle=none;sketch=1;html=1;exitX=1;exitY=0.5;exitDx=0;exitDy=0;entryX=0;entryY=0.5;entryDx=0;entryDy=0;" parent="1" source="10" target="19" edge="1">
                    <mxGeometry relative="1" as="geometry"/>
                </mxCell>
                <mxCell id="10" value="root(elem)，获取元素的根节点，即代表当前元素所属集合的元素" style="rounded=0;whiteSpace=wrap;html=1;fillColor=#ffe6cc;strokeColor=#d79b00;comic=1;sketch=1;" parent="1" vertex="1">
                    <mxGeometry x="175" y="205" width="130" height="50" as="geometry"/>
                </mxCell>
                <mxCell id="21" style="edgeStyle=none;sketch=1;html=1;exitX=1;exitY=0.5;exitDx=0;exitDy=0;entryX=0;entryY=0.5;entryDx=0;entryDy=0;" parent="1" source="12" target="19" edge="1">
                    <mxGeometry relative="1" as="geometry"/>
                </mxCell>
                <mxCell id="12" value="merge(elem1, elem2)，合并两个元素所属集合" style="rounded=0;whiteSpace=wrap;html=1;fillColor=#ffe6cc;strokeColor=#d79b00;comic=1;sketch=1;" parent="1" vertex="1">
                    <mxGeometry x="175" y="275" width="130" height="50" as="geometry"/>
                </mxCell>
                <mxCell id="16" style="edgeStyle=none;sketch=1;html=1;exitX=1;exitY=0.5;exitDx=0;exitDy=0;entryX=0;entryY=0.5;entryDx=0;entryDy=0;" parent="1" source="14" target="15" edge="1">
                    <mxGeometry relative="1" as="geometry"/>
                </mxCell>
                <mxCell id="30" style="edgeStyle=none;sketch=1;html=1;exitX=1;exitY=0.5;exitDx=0;exitDy=0;entryX=0;entryY=0.5;entryDx=0;entryDy=0;" parent="1" source="14" target="28" edge="1">
                    <mxGeometry relative="1" as="geometry"/>
                </mxCell>
                <mxCell id="14" value="实现方式" style="rounded=0;whiteSpace=wrap;html=1;fillColor=#ffe6cc;strokeColor=#d79b00;comic=1;" parent="1" vertex="1">
                    <mxGeometry x="40" y="462.5" width="80" height="30" as="geometry"/>
                </mxCell>
                <mxCell id="18" style="edgeStyle=none;sketch=1;html=1;exitX=1;exitY=0.5;exitDx=0;exitDy=0;entryX=0;entryY=0.5;entryDx=0;entryDy=0;" parent="1" source="15" target="17" edge="1">
                    <mxGeometry relative="1" as="geometry"/>
                </mxCell>
                <mxCell id="15" value="int数组实现" style="rounded=0;whiteSpace=wrap;html=1;fillColor=#dae8fc;strokeColor=#6c8ebf;comic=1;" parent="1" vertex="1">
                    <mxGeometry x="175" y="410" width="80" height="30" as="geometry"/>
                </mxCell>
                <mxCell id="27" style="edgeStyle=none;sketch=1;html=1;exitX=1;exitY=0.5;exitDx=0;exitDy=0;entryX=0;entryY=0.5;entryDx=0;entryDy=0;" parent="1" source="17" target="26" edge="1">
                    <mxGeometry relative="1" as="geometry"/>
                </mxCell>
                <mxCell id="17" value="成员变量：&lt;br&gt;① int[] parent&lt;br&gt;② Map&amp;lt;Type, Integer&amp;gt; type2IntMap" style="rounded=0;whiteSpace=wrap;html=1;fillColor=#ffe6cc;strokeColor=#d79b00;comic=1;align=left;sketch=1;" parent="1" vertex="1">
                    <mxGeometry x="300" y="398.44" width="200" height="53.12" as="geometry"/>
                </mxCell>
                <mxCell id="23" style="edgeStyle=none;sketch=1;html=1;exitX=1;exitY=0.5;exitDx=0;exitDy=0;entryX=0;entryY=0.5;entryDx=0;entryDy=0;" parent="1" source="19" target="22" edge="1">
                    <mxGeometry relative="1" as="geometry"/>
                </mxCell>
                <mxCell id="25" style="edgeStyle=none;sketch=1;html=1;exitX=1;exitY=0.5;exitDx=0;exitDy=0;entryX=0;entryY=0.5;entryDx=0;entryDy=0;" parent="1" source="19" target="24" edge="1">
                    <mxGeometry relative="1" as="geometry"/>
                </mxCell>
                <mxCell id="41" style="edgeStyle=none;sketch=1;html=1;exitX=1;exitY=0.5;exitDx=0;exitDy=0;entryX=0;entryY=0.5;entryDx=0;entryDy=0;fontSize=11;" parent="1" source="19" target="40" edge="1">
                    <mxGeometry relative="1" as="geometry"/>
                </mxCell>
                <mxCell id="19" value="需要满足的特性" style="rounded=0;whiteSpace=wrap;html=1;fillColor=#dae8fc;strokeColor=#6c8ebf;comic=1;" parent="1" vertex="1">
                    <mxGeometry x="350" y="250" width="100" height="30" as="geometry"/>
                </mxCell>
                <mxCell id="43" style="edgeStyle=none;sketch=1;html=1;exitX=1;exitY=0.5;exitDx=0;exitDy=0;entryX=0;entryY=0.5;entryDx=0;entryDy=0;fontSize=11;" parent="1" source="22" target="42" edge="1">
                    <mxGeometry relative="1" as="geometry"/>
                </mxCell>
                <mxCell id="22" value="① 维护&lt;b&gt;所有元素&lt;/b&gt;的集合&lt;br&gt;用于获取元素和遍历元素" style="rounded=0;whiteSpace=wrap;html=1;fillColor=#ffe6cc;strokeColor=#d79b00;comic=1;sketch=1;" parent="1" vertex="1">
                    <mxGeometry x="500" y="200" width="140" height="40" as="geometry"/>
                </mxCell>
                <mxCell id="24" value="③ 维护&lt;b&gt;元素的关联对象&lt;/b&gt;之间的&lt;b&gt;父子关系&lt;/b&gt;&lt;br&gt;形成依赖树，这样关联对象根节点才能表示元素所属集合" style="rounded=0;whiteSpace=wrap;html=1;fillColor=#ffe6cc;strokeColor=#d79b00;comic=1;sketch=1;align=left;" parent="1" vertex="1">
                    <mxGeometry x="500" y="290" width="310" height="40" as="geometry"/>
                </mxCell>
                <mxCell id="26" value="① 维护关联对象(整数)的父子关系&lt;br&gt;② 1) 维护所有元素集合 2) 元素与关联对象的映射关系" style="rounded=0;whiteSpace=wrap;html=1;fillColor=#dae8fc;strokeColor=#6c8ebf;comic=1;align=left;sketch=1;" parent="1" vertex="1">
                    <mxGeometry x="530" y="396.88" width="220" height="56.25" as="geometry"/>
                </mxCell>
                <mxCell id="32" style="edgeStyle=none;sketch=1;html=1;exitX=1;exitY=0.5;exitDx=0;exitDy=0;entryX=0;entryY=0.5;entryDx=0;entryDy=0;" parent="1" source="28" target="31" edge="1">
                    <mxGeometry relative="1" as="geometry"/>
                </mxCell>
                <mxCell id="28" value="链表实现" style="rounded=0;whiteSpace=wrap;html=1;fillColor=#dae8fc;strokeColor=#6c8ebf;comic=1;" parent="1" vertex="1">
                    <mxGeometry x="175" y="510" width="80" height="30" as="geometry"/>
                </mxCell>
                <mxCell id="34" style="edgeStyle=none;sketch=1;html=1;exitX=0.5;exitY=1;exitDx=0;exitDy=0;entryX=0.5;entryY=0;entryDx=0;entryDy=0;fontSize=11;" parent="1" source="31" target="33" edge="1">
                    <mxGeometry relative="1" as="geometry"/>
                </mxCell>
                <mxCell id="36" style="edgeStyle=none;sketch=1;html=1;exitX=1;exitY=0.5;exitDx=0;exitDy=0;entryX=0;entryY=0.5;entryDx=0;entryDy=0;fontSize=11;" parent="1" source="31" target="35" edge="1">
                    <mxGeometry relative="1" as="geometry"/>
                </mxCell>
                <mxCell id="31" value="成员变量：&lt;br&gt;Map&amp;lt;Type, UnionNode&amp;gt; type2nodeMap" style="rounded=0;whiteSpace=wrap;html=1;fillColor=#ffe6cc;strokeColor=#d79b00;comic=1;align=left;sketch=1;" parent="1" vertex="1">
                    <mxGeometry x="290" y="503.44" width="220" height="43.12" as="geometry"/>
                </mxCell>
                <mxCell id="33" value="&lt;pre style=&quot;background-color: rgb(255 , 255 , 255) ; color: rgb(8 , 8 , 8) ; font-family: &amp;#34;consolas&amp;#34; , monospace ; font-size: 11px&quot;&gt;&lt;span style=&quot;color: #0033b3&quot;&gt;static class &lt;/span&gt;&lt;span style=&quot;color: #066555&quot;&gt;UnionNode &lt;/span&gt;{&lt;br&gt;    &lt;span style=&quot;color: #066555&quot;&gt;UnionNode &lt;/span&gt;&lt;span style=&quot;color: #871094&quot;&gt;parent&lt;/span&gt;;&lt;br&gt;    ...&lt;br&gt;}&lt;/pre&gt;" style="rounded=0;whiteSpace=wrap;html=1;fillColor=#ffe6cc;strokeColor=#d79b00;comic=1;align=left;" parent="1" vertex="1">
                    <mxGeometry x="325" y="570" width="150" height="60" as="geometry"/>
                </mxCell>
                <mxCell id="35" value="map：1) 维护所有元素集合 2) 元素与关联对象的映射关系&lt;br&gt;UnionNode：元素关联对象，自己维护它们之间之间的父子关系" style="rounded=0;whiteSpace=wrap;html=1;fillColor=#dae8fc;strokeColor=#6c8ebf;comic=1;align=left;sketch=1;" parent="1" vertex="1">
                    <mxGeometry x="540" y="490.94" width="230" height="68.12" as="geometry"/>
                </mxCell>
                <mxCell id="38" style="edgeStyle=none;sketch=1;html=1;exitX=0;exitY=0.5;exitDx=0;exitDy=0;entryX=1;entryY=0.5;entryDx=0;entryDy=0;fontSize=11;dashed=1;" parent="1" source="37" target="33" edge="1">
                    <mxGeometry relative="1" as="geometry"/>
                </mxCell>
                <mxCell id="37" value="若需要维护元素与元素之间的关系时，可以在UnionNode中加入Type类型字段" style="rounded=0;whiteSpace=wrap;html=1;fillColor=#d5e8d4;strokeColor=#82b366;comic=1;align=left;sketch=1;" parent="1" vertex="1">
                    <mxGeometry x="520" y="578.44" width="220" height="43.12" as="geometry"/>
                </mxCell>
                <mxCell id="39" value="在&lt;b&gt;int数组实现&lt;/b&gt;中关联对象为&lt;b&gt;数组下标&lt;/b&gt;&lt;br&gt;在&lt;b&gt;链表实现&lt;/b&gt;中关联对象为&lt;b&gt;链表节点&lt;/b&gt;" style="rounded=0;whiteSpace=wrap;html=1;fillColor=#dae8fc;strokeColor=#6c8ebf;comic=1;sketch=1;align=left;" parent="1" vertex="1">
                    <mxGeometry x="710" y="240" width="200" height="40" as="geometry"/>
                </mxCell>
                <mxCell id="44" style="edgeStyle=none;sketch=1;html=1;exitX=1;exitY=0.5;exitDx=0;exitDy=0;entryX=0;entryY=0.5;entryDx=0;entryDy=0;fontSize=11;" parent="1" source="40" target="42" edge="1">
                    <mxGeometry relative="1" as="geometry"/>
                </mxCell>
                <mxCell id="40" value="② &lt;b&gt;元素与关联对象的映射关系&lt;/b&gt;" style="rounded=0;whiteSpace=wrap;html=1;fillColor=#ffe6cc;strokeColor=#d79b00;comic=1;sketch=1;align=left;" parent="1" vertex="1">
                    <mxGeometry x="500" y="250" width="170" height="30" as="geometry"/>
                </mxCell>
                <mxCell id="42" value="使用Map可以同时满足①和②" style="rounded=0;whiteSpace=wrap;html=1;fillColor=#d5e8d4;strokeColor=#82b366;comic=1;sketch=1;align=left;" parent="1" vertex="1">
                    <mxGeometry x="710" y="200" width="160" height="30" as="geometry"/>
                </mxCell>
                <mxCell id="47" style="edgeStyle=none;sketch=1;html=1;exitX=0.5;exitY=1;exitDx=0;exitDy=0;entryX=0.5;entryY=0;entryDx=0;entryDy=0;fontSize=11;" parent="1" source="45" target="46" edge="1">
                    <mxGeometry relative="1" as="geometry"/>
                </mxCell>
                <mxCell id="45" value="UnionSet接口" style="rounded=0;whiteSpace=wrap;html=1;fillColor=#e1d5e7;strokeColor=#9673a6;comic=1;" parent="1" vertex="1">
                    <mxGeometry x="160" y="650" width="80" height="30" as="geometry"/>
                </mxCell>
                <mxCell id="46" value="&lt;pre style=&quot;background-color: rgb(255 , 255 , 255) ; color: rgb(8 , 8 , 8) ; font-family: &amp;#34;consolas&amp;#34; , monospace&quot;&gt;&lt;span style=&quot;color: #0033b3&quot;&gt;public interface &lt;/span&gt;&lt;span style=&quot;color: #6c00d5&quot;&gt;UnionSet&lt;/span&gt;&amp;lt;&lt;span style=&quot;color: #007e8a&quot;&gt;ElemType&lt;/span&gt;&amp;gt; {&lt;br&gt;&lt;br&gt;    &lt;span style=&quot;color: #0033b3&quot;&gt;boolean &lt;/span&gt;&lt;span style=&quot;color: #795e26&quot;&gt;addElement&lt;/span&gt;(&lt;span style=&quot;color: #007e8a&quot;&gt;ElemType &lt;/span&gt;elem);&lt;br&gt;&lt;br&gt;    &lt;span style=&quot;color: #0033b3&quot;&gt;boolean &lt;/span&gt;&lt;span style=&quot;color: #795e26&quot;&gt;merge&lt;/span&gt;(&lt;span style=&quot;color: #007e8a&quot;&gt;ElemType &lt;/span&gt;elem1, &lt;span style=&quot;color: #007e8a&quot;&gt;ElemType &lt;/span&gt;elem2);&lt;br&gt;&lt;br&gt;    &lt;span style=&quot;color: #0033b3&quot;&gt;boolean &lt;/span&gt;&lt;span style=&quot;color: #795e26&quot;&gt;isSameSet&lt;/span&gt;(&lt;span style=&quot;color: #007e8a&quot;&gt;ElemType &lt;/span&gt;elem1, &lt;span style=&quot;color: #007e8a&quot;&gt;ElemType &lt;/span&gt;elem2);&lt;br&gt;&lt;br&gt;    &lt;span style=&quot;color: #6c00d5&quot;&gt;List&lt;/span&gt;&amp;lt;&lt;span style=&quot;color: #007e8a&quot;&gt;ElemType&lt;/span&gt;&amp;gt; &lt;span style=&quot;color: #795e26&quot;&gt;getGroupElementsByElem&lt;/span&gt;(&lt;span style=&quot;color: #007e8a&quot;&gt;ElemType &lt;/span&gt;elem);&lt;br&gt;}&lt;/pre&gt;" style="rounded=0;whiteSpace=wrap;html=1;fillColor=#ffe6cc;strokeColor=#d79b00;comic=1;sketch=0;align=left;" parent="1" vertex="1">
                    <mxGeometry x="10" y="710" width="380" height="150" as="geometry"/>
                </mxCell>
                <mxCell id="50" style="edgeStyle=none;sketch=1;html=1;exitX=0.5;exitY=1;exitDx=0;exitDy=0;entryX=0.5;entryY=0;entryDx=0;entryDy=0;fontSize=11;" parent="1" source="48" target="49" edge="1">
                    <mxGeometry relative="1" as="geometry"/>
                </mxCell>
                <mxCell id="48" value="int数组实现" style="rounded=0;whiteSpace=wrap;html=1;fillColor=#ffe6cc;strokeColor=#d79b00;comic=1;" parent="1" vertex="1">
                    <mxGeometry x="612" y="650" width="80" height="30" as="geometry"/>
                </mxCell>
                <mxCell id="49" value="&lt;pre style=&quot;background-color: rgb(255 , 255 , 255) ; color: rgb(8 , 8 , 8) ; font-family: &amp;#34;consolas&amp;#34; , monospace&quot;&gt;&lt;pre style=&quot;font-family: &amp;#34;consolas&amp;#34; , monospace&quot;&gt;&lt;span style=&quot;color: #0033b3&quot;&gt;public class &lt;/span&gt;&lt;span style=&quot;color: #066555&quot;&gt;IntArrayUnionSet&lt;/span&gt;&amp;lt;&lt;span style=&quot;color: #007e8a&quot;&gt;ElemType&lt;/span&gt;&amp;gt; &lt;span style=&quot;color: #0033b3&quot;&gt;implements &lt;/span&gt;&lt;span style=&quot;color: #6c00d5&quot;&gt;UnionSet&lt;/span&gt;&amp;lt;&lt;span style=&quot;color: #007e8a&quot;&gt;ElemType&lt;/span&gt;&amp;gt; {&lt;br&gt;&lt;br&gt;    &lt;span style=&quot;color: #0033b3&quot;&gt;private &lt;/span&gt;&lt;span style=&quot;color: #6c00d5&quot;&gt;List&lt;/span&gt;&amp;lt;&lt;span style=&quot;color: #066555&quot;&gt;Integer&lt;/span&gt;&amp;gt; &lt;span style=&quot;color: #871094&quot;&gt;parent &lt;/span&gt;= &lt;span style=&quot;color: #0033b3&quot;&gt;new &lt;/span&gt;&lt;span style=&quot;color: #795e26&quot;&gt;ArrayList&lt;/span&gt;&amp;lt;&amp;gt;();&lt;br&gt;    &lt;span style=&quot;color: #0033b3&quot;&gt;private &lt;/span&gt;&lt;span style=&quot;color: #6c00d5&quot;&gt;Map&lt;/span&gt;&amp;lt;&lt;span style=&quot;color: #007e8a&quot;&gt;ElemType&lt;/span&gt;, &lt;span style=&quot;color: #066555&quot;&gt;Integer&lt;/span&gt;&amp;gt; &lt;span style=&quot;color: #871094&quot;&gt;elemIntMapping &lt;/span&gt;= &lt;span style=&quot;color: #0033b3&quot;&gt;new &lt;/span&gt;&lt;span style=&quot;color: #795e26&quot;&gt;HashMap&lt;/span&gt;&amp;lt;&amp;gt;();&lt;br&gt;&lt;br&gt;    &lt;span style=&quot;color: #9e880d&quot;&gt;@Override&lt;br&gt;&lt;/span&gt;&lt;span style=&quot;color: #9e880d&quot;&gt;    &lt;/span&gt;&lt;span style=&quot;color: #0033b3&quot;&gt;public boolean &lt;/span&gt;&lt;span style=&quot;color: #795e26&quot;&gt;addElement&lt;/span&gt;(&lt;span style=&quot;color: #007e8a&quot;&gt;ElemType &lt;/span&gt;elem) {&lt;br&gt;        &lt;span style=&quot;color: #0033b3&quot;&gt;if &lt;/span&gt;(!&lt;span style=&quot;color: #871094&quot;&gt;elemIntMapping&lt;/span&gt;.&lt;span style=&quot;color: #795e26&quot;&gt;containsKey&lt;/span&gt;(elem)) {&lt;br&gt;            &lt;span style=&quot;color: #0033b3&quot;&gt;int &lt;/span&gt;&lt;span style=&quot;color: #000000&quot;&gt;idx &lt;/span&gt;= &lt;span style=&quot;color: #871094&quot;&gt;parent&lt;/span&gt;.&lt;span style=&quot;color: #795e26&quot;&gt;size&lt;/span&gt;();&lt;br&gt;            &lt;span style=&quot;color: #871094&quot;&gt;elemIntMapping&lt;/span&gt;.&lt;span style=&quot;color: #795e26&quot;&gt;put&lt;/span&gt;(elem, &lt;span style=&quot;color: #000000&quot;&gt;idx&lt;/span&gt;);&lt;br&gt;            &lt;span style=&quot;color: #871094&quot;&gt;parent&lt;/span&gt;.&lt;span style=&quot;color: #795e26&quot;&gt;add&lt;/span&gt;(&lt;span style=&quot;color: #000000&quot;&gt;idx&lt;/span&gt;);&lt;br&gt;            &lt;span style=&quot;color: #0033b3&quot;&gt;return true&lt;/span&gt;;&lt;br&gt;        }&lt;br&gt;        &lt;span style=&quot;color: #0033b3&quot;&gt;return false&lt;/span&gt;;&lt;br&gt;    }&lt;br&gt;&lt;br&gt;    &lt;span style=&quot;color: #9e880d&quot;&gt;@Override&lt;br&gt;&lt;/span&gt;&lt;span style=&quot;color: #9e880d&quot;&gt;    &lt;/span&gt;&lt;span style=&quot;color: #0033b3&quot;&gt;public boolean &lt;/span&gt;&lt;span style=&quot;color: #795e26&quot;&gt;merge&lt;/span&gt;(&lt;span style=&quot;color: #007e8a&quot;&gt;ElemType &lt;/span&gt;elem1, &lt;span style=&quot;color: #007e8a&quot;&gt;ElemType &lt;/span&gt;elem2) {&lt;br&gt;        &lt;span style=&quot;color: #795e26&quot;&gt;addElement&lt;/span&gt;(elem1);&lt;br&gt;        &lt;span style=&quot;color: #795e26&quot;&gt;addElement&lt;/span&gt;(elem2);&lt;br&gt;        &lt;span style=&quot;color: #066555&quot;&gt;Integer &lt;/span&gt;&lt;span style=&quot;color: #000000&quot;&gt;root1 &lt;/span&gt;= &lt;span style=&quot;color: #795e26&quot;&gt;root&lt;/span&gt;(elem1);&lt;br&gt;        &lt;span style=&quot;color: #066555&quot;&gt;Integer &lt;/span&gt;&lt;span style=&quot;color: #000000&quot;&gt;root2 &lt;/span&gt;= &lt;span style=&quot;color: #795e26&quot;&gt;root&lt;/span&gt;(elem2);&lt;br&gt;        &lt;span style=&quot;color: #871094&quot;&gt;parent&lt;/span&gt;.&lt;span style=&quot;color: #795e26&quot;&gt;set&lt;/span&gt;(&lt;span style=&quot;color: #000000&quot;&gt;root1&lt;/span&gt;, &lt;span style=&quot;color: #000000&quot;&gt;root2&lt;/span&gt;);&lt;br&gt;        &lt;span style=&quot;color: #0033b3&quot;&gt;return &lt;/span&gt;&lt;span style=&quot;color: #000000&quot;&gt;root1&lt;/span&gt;.&lt;span style=&quot;color: #795e26&quot;&gt;equals&lt;/span&gt;(&lt;span style=&quot;color: #000000&quot;&gt;root2&lt;/span&gt;);&lt;br&gt;    }&lt;br&gt;&lt;br&gt;    &lt;span style=&quot;color: #9e880d&quot;&gt;@Override&lt;br&gt;&lt;/span&gt;&lt;span style=&quot;color: #9e880d&quot;&gt;    &lt;/span&gt;&lt;span style=&quot;color: #0033b3&quot;&gt;public boolean &lt;/span&gt;&lt;span style=&quot;color: #795e26&quot;&gt;isSameSet&lt;/span&gt;(&lt;span style=&quot;color: #007e8a&quot;&gt;ElemType &lt;/span&gt;elem1, &lt;span style=&quot;color: #007e8a&quot;&gt;ElemType &lt;/span&gt;elem2) {&lt;br&gt;        &lt;span style=&quot;color: #0033b3&quot;&gt;return &lt;/span&gt;&lt;span style=&quot;color: #795e26&quot;&gt;root&lt;/span&gt;(elem1).&lt;span style=&quot;color: #795e26&quot;&gt;equals&lt;/span&gt;(&lt;span style=&quot;color: #795e26&quot;&gt;root&lt;/span&gt;(elem2));&lt;br&gt;    }&lt;br&gt;&lt;br&gt;    &lt;span style=&quot;color: #9e880d&quot;&gt;@Override&lt;br&gt;&lt;/span&gt;&lt;span style=&quot;color: #9e880d&quot;&gt;    &lt;/span&gt;&lt;span style=&quot;color: #0033b3&quot;&gt;public &lt;/span&gt;&lt;span style=&quot;color: #6c00d5&quot;&gt;List&lt;/span&gt;&amp;lt;&lt;span style=&quot;color: #007e8a&quot;&gt;ElemType&lt;/span&gt;&amp;gt; &lt;span style=&quot;color: #795e26&quot;&gt;getGroupElementsByElem&lt;/span&gt;(&lt;span style=&quot;color: #007e8a&quot;&gt;ElemType &lt;/span&gt;elem) {&lt;br&gt;        &lt;span style=&quot;color: #6c00d5&quot;&gt;List&lt;/span&gt;&amp;lt;&lt;span style=&quot;color: #007e8a&quot;&gt;ElemType&lt;/span&gt;&amp;gt; &lt;span style=&quot;color: #000000&quot;&gt;res &lt;/span&gt;= &lt;span style=&quot;color: #0033b3&quot;&gt;new &lt;/span&gt;&lt;span style=&quot;color: #795e26&quot;&gt;ArrayList&lt;/span&gt;&amp;lt;&amp;gt;();&lt;br&gt;        &lt;span style=&quot;color: #066555&quot;&gt;Integer &lt;/span&gt;&lt;span style=&quot;color: #000000&quot;&gt;inputElemRoot &lt;/span&gt;= &lt;span style=&quot;color: #795e26&quot;&gt;root&lt;/span&gt;(elem);&lt;br&gt;        &lt;span style=&quot;color: #871094&quot;&gt;elemIntMapping&lt;/span&gt;.&lt;span style=&quot;color: #795e26&quot;&gt;forEach&lt;/span&gt;((curElem, idx)-&amp;gt; {&lt;br&gt;            &lt;span style=&quot;color: #066555&quot;&gt;Integer &lt;/span&gt;&lt;span style=&quot;color: #000000&quot;&gt;curRoot &lt;/span&gt;= &lt;span style=&quot;color: #795e26&quot;&gt;root&lt;/span&gt;(idx);&lt;br&gt;            &lt;span style=&quot;color: #0033b3&quot;&gt;if &lt;/span&gt;(&lt;span style=&quot;color: #000000&quot;&gt;curRoot&lt;/span&gt;.&lt;span style=&quot;color: #795e26&quot;&gt;equals&lt;/span&gt;(&lt;span style=&quot;color: #851691&quot;&gt;inputElemRoot&lt;/span&gt;)) {&lt;br&gt;                &lt;span style=&quot;color: #851691&quot;&gt;res&lt;/span&gt;.&lt;span style=&quot;color: #795e26&quot;&gt;add&lt;/span&gt;(curElem);&lt;br&gt;            }&lt;br&gt;        });&lt;br&gt;        &lt;span style=&quot;color: #0033b3&quot;&gt;return &lt;/span&gt;&lt;span style=&quot;color: #000000&quot;&gt;res&lt;/span&gt;;&lt;br&gt;    }&lt;br&gt;&lt;br&gt;    &lt;span style=&quot;color: #0033b3&quot;&gt;public &lt;/span&gt;&lt;span style=&quot;color: #066555&quot;&gt;Integer &lt;/span&gt;&lt;span style=&quot;color: #795e26&quot;&gt;root&lt;/span&gt;(&lt;span style=&quot;color: #007e8a&quot;&gt;ElemType &lt;/span&gt;elem) {&lt;br&gt;        &lt;span style=&quot;color: #066555&quot;&gt;Integer &lt;/span&gt;&lt;span style=&quot;color: #000000&quot;&gt;idx &lt;/span&gt;= &lt;span style=&quot;color: #871094&quot;&gt;elemIntMapping&lt;/span&gt;.&lt;span style=&quot;color: #795e26&quot;&gt;get&lt;/span&gt;(elem);&lt;br&gt;        &lt;span style=&quot;color: #0033b3&quot;&gt;return &lt;/span&gt;&lt;span style=&quot;color: #795e26&quot;&gt;root&lt;/span&gt;(&lt;span style=&quot;color: #000000&quot;&gt;idx&lt;/span&gt;);&lt;br&gt;    }&lt;br&gt;&lt;br&gt;    &lt;span style=&quot;color: #0033b3&quot;&gt;private &lt;/span&gt;&lt;span style=&quot;color: #066555&quot;&gt;Integer &lt;/span&gt;&lt;span style=&quot;color: #795e26&quot;&gt;root&lt;/span&gt;(&lt;span style=&quot;color: #066555&quot;&gt;Integer &lt;/span&gt;idx) {&lt;br&gt;        &lt;span style=&quot;color: #0033b3&quot;&gt;if &lt;/span&gt;(&lt;span style=&quot;color: #871094&quot;&gt;parent&lt;/span&gt;.&lt;span style=&quot;color: #795e26&quot;&gt;get&lt;/span&gt;(idx).&lt;span style=&quot;color: #795e26&quot;&gt;equals&lt;/span&gt;(idx)) {&lt;br&gt;            &lt;span style=&quot;color: #0033b3&quot;&gt;return &lt;/span&gt;idx;&lt;br&gt;        }&lt;br&gt;        &lt;span style=&quot;color: #0033b3&quot;&gt;else &lt;/span&gt;{&lt;br&gt;            &lt;span style=&quot;color: #066555&quot;&gt;Integer &lt;/span&gt;&lt;span style=&quot;color: #000000&quot;&gt;rootIdx &lt;/span&gt;= &lt;span style=&quot;color: #795e26&quot;&gt;root&lt;/span&gt;(&lt;span style=&quot;color: #871094&quot;&gt;parent&lt;/span&gt;.&lt;span style=&quot;color: #795e26&quot;&gt;get&lt;/span&gt;(idx));&lt;br&gt;            &lt;span style=&quot;color: #871094&quot;&gt;parent&lt;/span&gt;.&lt;span style=&quot;color: #795e26&quot;&gt;set&lt;/span&gt;(idx, &lt;span style=&quot;color: #000000&quot;&gt;rootIdx&lt;/span&gt;);&lt;br&gt;            &lt;span style=&quot;color: #0033b3&quot;&gt;return &lt;/span&gt;&lt;span style=&quot;color: #000000&quot;&gt;rootIdx&lt;/span&gt;;&lt;br&gt;        }&lt;br&gt;    }&lt;br&gt;}&lt;/pre&gt;&lt;/pre&gt;" style="rounded=0;whiteSpace=wrap;html=1;fillColor=#ffe6cc;strokeColor=#d79b00;comic=1;sketch=0;align=left;" parent="1" vertex="1">
                    <mxGeometry x="414" y="710" width="476" height="870" as="geometry"/>
                </mxCell>
                <mxCell id="53" style="edgeStyle=none;sketch=1;html=1;entryX=0.5;entryY=0;entryDx=0;entryDy=0;fontSize=11;exitX=0.5;exitY=1;exitDx=0;exitDy=0;" parent="1" source="51" target="52" edge="1">
                    <mxGeometry relative="1" as="geometry">
                        <mxPoint x="1060" y="680" as="sourcePoint"/>
                    </mxGeometry>
                </mxCell>
                <mxCell id="51" value="node链表实现" style="rounded=0;whiteSpace=wrap;html=1;fillColor=#ffe6cc;strokeColor=#d79b00;comic=1;" parent="1" vertex="1">
                    <mxGeometry x="1131" y="650" width="80" height="30" as="geometry"/>
                </mxCell>
                <mxCell id="52" value="&lt;pre style=&quot;background-color: rgb(255 , 255 , 255) ; color: rgb(8 , 8 , 8) ; font-family: &amp;#34;consolas&amp;#34; , monospace ; font-size: 11px&quot;&gt;&lt;pre style=&quot;font-family: &amp;#34;consolas&amp;#34; , monospace ; font-size: 12px&quot;&gt;&lt;pre style=&quot;font-family: &amp;#34;consolas&amp;#34; , monospace&quot;&gt;&lt;span style=&quot;color: #0033b3&quot;&gt;public class &lt;/span&gt;&lt;span style=&quot;color: #066555&quot;&gt;ListUnionSet&lt;/span&gt;&amp;lt;&lt;span style=&quot;color: #007e8a&quot;&gt;ElemType&lt;/span&gt;&amp;gt; &lt;span style=&quot;color: #0033b3&quot;&gt;implements &lt;/span&gt;&lt;span style=&quot;color: #6c00d5&quot;&gt;UnionSet&lt;/span&gt;&amp;lt;&lt;span style=&quot;color: #007e8a&quot;&gt;ElemType&lt;/span&gt;&amp;gt; {&lt;br&gt;&lt;br&gt;    &lt;span style=&quot;color: #6c00d5&quot;&gt;Map&lt;/span&gt;&amp;lt;&lt;span style=&quot;color: #007e8a&quot;&gt;ElemType&lt;/span&gt;, &lt;span style=&quot;color: #066555&quot;&gt;UnionNode&lt;/span&gt;&amp;gt; &lt;span style=&quot;color: #871094&quot;&gt;elemNodeMapping &lt;/span&gt;= &lt;span style=&quot;color: #0033b3&quot;&gt;new &lt;/span&gt;&lt;span style=&quot;color: #795e26&quot;&gt;HashMap&lt;/span&gt;&amp;lt;&amp;gt;();&lt;br&gt;&lt;br&gt;    &lt;span style=&quot;color: #9e880d&quot;&gt;@Override&lt;br&gt;&lt;/span&gt;&lt;span style=&quot;color: #9e880d&quot;&gt;    &lt;/span&gt;&lt;span style=&quot;color: #0033b3&quot;&gt;public boolean &lt;/span&gt;&lt;span style=&quot;color: #795e26&quot;&gt;addElement&lt;/span&gt;(&lt;span style=&quot;color: #007e8a&quot;&gt;ElemType &lt;/span&gt;elem) {&lt;br&gt;        &lt;span style=&quot;color: #0033b3&quot;&gt;if &lt;/span&gt;(!&lt;span style=&quot;color: #871094&quot;&gt;elemNodeMapping&lt;/span&gt;.&lt;span style=&quot;color: #795e26&quot;&gt;containsKey&lt;/span&gt;(elem)) {&lt;br&gt;            &lt;span style=&quot;color: #871094&quot;&gt;elemNodeMapping&lt;/span&gt;.&lt;span style=&quot;color: #795e26&quot;&gt;put&lt;/span&gt;(elem, &lt;span style=&quot;color: #0033b3&quot;&gt;new &lt;/span&gt;&lt;span style=&quot;color: #795e26&quot;&gt;UnionNode&lt;/span&gt;());&lt;br&gt;            &lt;span style=&quot;color: #0033b3&quot;&gt;return true&lt;/span&gt;;&lt;br&gt;        }&lt;br&gt;        &lt;span style=&quot;color: #0033b3&quot;&gt;return false&lt;/span&gt;;&lt;br&gt;    }&lt;br&gt;&lt;br&gt;    &lt;span style=&quot;color: #9e880d&quot;&gt;@Override&lt;br&gt;&lt;/span&gt;&lt;span style=&quot;color: #9e880d&quot;&gt;    &lt;/span&gt;&lt;span style=&quot;color: #0033b3&quot;&gt;public boolean &lt;/span&gt;&lt;span style=&quot;color: #795e26&quot;&gt;merge&lt;/span&gt;(&lt;span style=&quot;color: #007e8a&quot;&gt;ElemType &lt;/span&gt;elem1, &lt;span style=&quot;color: #007e8a&quot;&gt;ElemType &lt;/span&gt;elem2) {&lt;br&gt;        &lt;span style=&quot;color: #795e26&quot;&gt;addElement&lt;/span&gt;(elem1);&lt;br&gt;        &lt;span style=&quot;color: #795e26&quot;&gt;addElement&lt;/span&gt;(elem2);&lt;br&gt;        &lt;span style=&quot;color: #066555&quot;&gt;UnionNode &lt;/span&gt;&lt;span style=&quot;color: #000000&quot;&gt;root1 &lt;/span&gt;= &lt;span style=&quot;color: #795e26&quot;&gt;root&lt;/span&gt;(elem1);&lt;br&gt;        &lt;span style=&quot;color: #066555&quot;&gt;UnionNode &lt;/span&gt;&lt;span style=&quot;color: #000000&quot;&gt;root2 &lt;/span&gt;= &lt;span style=&quot;color: #795e26&quot;&gt;root&lt;/span&gt;(elem2);&lt;br&gt;        &lt;span style=&quot;color: #000000&quot;&gt;root1&lt;/span&gt;.&lt;span style=&quot;color: #871094&quot;&gt;parent &lt;/span&gt;= &lt;span style=&quot;color: #000000&quot;&gt;root2&lt;/span&gt;;&lt;br&gt;        &lt;span style=&quot;color: #0033b3&quot;&gt;return &lt;/span&gt;&lt;span style=&quot;color: #000000&quot;&gt;root1 &lt;/span&gt;== &lt;span style=&quot;color: #000000&quot;&gt;root2&lt;/span&gt;;&lt;br&gt;    }&lt;br&gt;&lt;br&gt;    &lt;span style=&quot;color: #9e880d&quot;&gt;@Override&lt;br&gt;&lt;/span&gt;&lt;span style=&quot;color: #9e880d&quot;&gt;    &lt;/span&gt;&lt;span style=&quot;color: #0033b3&quot;&gt;public boolean &lt;/span&gt;&lt;span style=&quot;color: #795e26&quot;&gt;isSameSet&lt;/span&gt;(&lt;span style=&quot;color: #007e8a&quot;&gt;ElemType &lt;/span&gt;elem1, &lt;span style=&quot;color: #007e8a&quot;&gt;ElemType &lt;/span&gt;elem2) {&lt;br&gt;        &lt;span style=&quot;color: #0033b3&quot;&gt;return &lt;/span&gt;&lt;span style=&quot;color: #795e26&quot;&gt;root&lt;/span&gt;(elem1) == &lt;span style=&quot;color: #795e26&quot;&gt;root&lt;/span&gt;(elem2);&lt;br&gt;    }&lt;br&gt;&lt;br&gt;    &lt;span style=&quot;color: #9e880d&quot;&gt;@Override&lt;br&gt;&lt;/span&gt;&lt;span style=&quot;color: #9e880d&quot;&gt;    &lt;/span&gt;&lt;span style=&quot;color: #0033b3&quot;&gt;public &lt;/span&gt;&lt;span style=&quot;color: #6c00d5&quot;&gt;List&lt;/span&gt;&amp;lt;&lt;span style=&quot;color: #007e8a&quot;&gt;ElemType&lt;/span&gt;&amp;gt; &lt;span style=&quot;color: #795e26&quot;&gt;getGroupElementsByElem&lt;/span&gt;(&lt;span style=&quot;color: #007e8a&quot;&gt;ElemType &lt;/span&gt;elem) {&lt;br&gt;        &lt;span style=&quot;color: #6c00d5&quot;&gt;List&lt;/span&gt;&amp;lt;&lt;span style=&quot;color: #007e8a&quot;&gt;ElemType&lt;/span&gt;&amp;gt; &lt;span style=&quot;color: #000000&quot;&gt;res &lt;/span&gt;= &lt;span style=&quot;color: #0033b3&quot;&gt;new &lt;/span&gt;&lt;span style=&quot;color: #795e26&quot;&gt;ArrayList&lt;/span&gt;&amp;lt;&amp;gt;();&lt;br&gt;        &lt;span style=&quot;color: #066555&quot;&gt;UnionNode &lt;/span&gt;&lt;span style=&quot;color: #000000&quot;&gt;inputElemRootNode &lt;/span&gt;= &lt;span style=&quot;color: #795e26&quot;&gt;root&lt;/span&gt;(elem);&lt;br&gt;        &lt;span style=&quot;color: #871094&quot;&gt;elemNodeMapping&lt;/span&gt;.&lt;span style=&quot;color: #795e26&quot;&gt;forEach&lt;/span&gt;((curElem, node)-&amp;gt; {&lt;br&gt;            &lt;span style=&quot;color: #066555&quot;&gt;UnionNode &lt;/span&gt;&lt;span style=&quot;color: #000000&quot;&gt;curRoot &lt;/span&gt;= &lt;span style=&quot;color: #795e26&quot;&gt;root&lt;/span&gt;(node);&lt;br&gt;            &lt;span style=&quot;color: #0033b3&quot;&gt;if &lt;/span&gt;(&lt;span style=&quot;color: #000000&quot;&gt;curRoot &lt;/span&gt;== &lt;span style=&quot;color: #851691&quot;&gt;inputElemRootNode&lt;/span&gt;) {&lt;br&gt;                &lt;span style=&quot;color: #851691&quot;&gt;res&lt;/span&gt;.&lt;span style=&quot;color: #795e26&quot;&gt;add&lt;/span&gt;(curElem);&lt;br&gt;            }&lt;br&gt;        });&lt;br&gt;        &lt;span style=&quot;color: #0033b3&quot;&gt;return &lt;/span&gt;&lt;span style=&quot;color: #000000&quot;&gt;res&lt;/span&gt;;&lt;br&gt;    }&lt;br&gt;&lt;br&gt;    &lt;span style=&quot;color: #0033b3&quot;&gt;public &lt;/span&gt;&lt;span style=&quot;color: #066555&quot;&gt;UnionNode &lt;/span&gt;&lt;span style=&quot;color: #795e26&quot;&gt;root&lt;/span&gt;(&lt;span style=&quot;color: #007e8a&quot;&gt;ElemType &lt;/span&gt;elem) {&lt;br&gt;        &lt;span style=&quot;color: #0033b3&quot;&gt;if &lt;/span&gt;(!&lt;span style=&quot;color: #871094&quot;&gt;elemNodeMapping&lt;/span&gt;.&lt;span style=&quot;color: #795e26&quot;&gt;containsKey&lt;/span&gt;(elem))&lt;br&gt;            &lt;span style=&quot;color: #0033b3&quot;&gt;return null&lt;/span&gt;;&lt;br&gt;        &lt;span style=&quot;color: #066555&quot;&gt;UnionNode &lt;/span&gt;&lt;span style=&quot;color: #000000&quot;&gt;unionNode &lt;/span&gt;= &lt;span style=&quot;color: #871094&quot;&gt;elemNodeMapping&lt;/span&gt;.&lt;span style=&quot;color: #795e26&quot;&gt;get&lt;/span&gt;(elem);&lt;br&gt;        &lt;span style=&quot;color: #0033b3&quot;&gt;return &lt;/span&gt;&lt;span style=&quot;color: #795e26&quot;&gt;root&lt;/span&gt;(&lt;span style=&quot;color: #000000&quot;&gt;unionNode&lt;/span&gt;);&lt;br&gt;    }&lt;br&gt;&lt;br&gt;    &lt;span style=&quot;color: #0033b3&quot;&gt;private &lt;/span&gt;&lt;span style=&quot;color: #066555&quot;&gt;UnionNode &lt;/span&gt;&lt;span style=&quot;color: #795e26&quot;&gt;root&lt;/span&gt;(&lt;span style=&quot;color: #066555&quot;&gt;UnionNode &lt;/span&gt;node) {&lt;br&gt;        &lt;span style=&quot;color: #0033b3&quot;&gt;return &lt;/span&gt;node.&lt;span style=&quot;color: #871094&quot;&gt;parent &lt;/span&gt;== &lt;span style=&quot;color: #0033b3&quot;&gt;null &lt;/span&gt;? node : (node.&lt;span style=&quot;color: #871094&quot;&gt;parent &lt;/span&gt;= &lt;span style=&quot;color: #795e26&quot;&gt;root&lt;/span&gt;(node.&lt;span style=&quot;color: #871094&quot;&gt;parent&lt;/span&gt;));&lt;br&gt;    }&lt;br&gt;&lt;br&gt;    &lt;span style=&quot;color: #0033b3&quot;&gt;public static class &lt;/span&gt;&lt;span style=&quot;color: #066555&quot;&gt;UnionNode &lt;/span&gt;{&lt;br&gt;        &lt;span style=&quot;color: #066555&quot;&gt;UnionNode &lt;/span&gt;&lt;span style=&quot;color: #871094&quot;&gt;parent&lt;/span&gt;;&lt;br&gt;    }&lt;br&gt;&lt;br&gt;}&lt;/pre&gt;&lt;/pre&gt;&lt;/pre&gt;" style="rounded=0;whiteSpace=wrap;html=1;fillColor=#ffe6cc;strokeColor=#d79b00;comic=1;sketch=0;align=left;" parent="1" vertex="1">
                    <mxGeometry x="910" y="710" width="522" height="830" as="geometry"/>
                </mxCell>
            </root>
        </mxGraphModel>
    </diagram>
</mxfile>